solid fishbucketjig4
facet normal 0.9943394616539097 0.10624987057786571 -0.0
  outer loop
    vertex 11.970541435955939 8.583618688225021 0.0
    vertex 12.788491520795198 0.9288324508827911 28.0
    vertex 12.788491520795198 0.9288324508827911 0.0
  endloop
endfacet
facet normal 0.9943394616539097 0.10624987057786571 -0.0
  outer loop
    vertex 12.788491520795198 0.9288324508827911 28.0
    vertex 11.970541435955939 8.583618688225021 0.0
    vertex 11.970541435955939 8.583618688225021 28.0
  endloop
endfacet
facet normal 0.6628228835443524 0.7487762182721551 0.0
  outer loop
    vertex 6.713009199540309 19.370571677046765 28.0
    vertex 9.058647005844177 17.29419374651815 0.0
    vertex 6.713009199540309 19.370571677046765 0.0
  endloop
endfacet
facet normal 0.6628228835443524 0.7487762182721551 0.0
  outer loop
    vertex 9.058647005844177 17.29419374651815 0.0
    vertex 6.713009199540309 19.370571677046765 28.0
    vertex 9.058647005844177 17.29419374651815 28.0
  endloop
endfacet
facet normal 0.8340352872795569 0.5517111015490871 0.0
  outer loop
    vertex 9.058647005844177 17.29419374651815 0.0
    vertex 10.78695298882176 14.681470941099972 28.0
    vertex 10.78695298882176 14.681470941099972 0.0
  endloop
endfacet
facet normal 0.8340352872795569 0.5517111015490871 0.0
  outer loop
    vertex 10.78695298882176 14.681470941099972 28.0
    vertex 9.058647005844177 17.29419374651815 0.0
    vertex 9.058647005844177 17.29419374651815 28.0
  endloop
endfacet
facet normal 0.948409564495141 0.3170477850011527 0.0
  outer loop
    vertex 10.78695298882176 14.681470941099972 0.0
    vertex 11.78014595189381 11.710456002252895 28.0
    vertex 11.78014595189381 11.710456002252895 0.0
  endloop
endfacet
facet normal 0.948409564495141 0.3170477850011527 0.0
  outer loop
    vertex 11.78014595189381 11.710456002252895 28.0
    vertex 10.78695298882176 14.681470941099972 0.0
    vertex 10.78695298882176 14.681470941099972 28.0
  endloop
endfacet
facet normal 0.9981512972112921 0.060778185851626476 -0.0
  outer loop
    vertex 11.78014595189381 11.710456002252895 0.0
    vertex 11.970541435955939 8.583618688225021 28.0
    vertex 11.970541435955939 8.583618688225021 0.0
  endloop
endfacet
facet normal 0.9981512972112921 0.060778185851626476 -0.0
  outer loop
    vertex 11.970541435955939 8.583618688225021 28.0
    vertex 11.78014595189381 11.710456002252895 0.0
    vertex 11.78014595189381 11.710456002252895 28.0
  endloop
endfacet
facet normal -0.6179052600893532 0.7862525609204138 -0.0
  outer loop
    vertex 4.268699590594777 0.38080850517620374 28.0
    vertex 7.777778945305438 3.1385465388792806 0.0
    vertex 4.268699590594777 0.38080850517620374 0.0
  endloop
endfacet
facet normal -0.6179052600893532 0.7862525609204138 -0.0
  outer loop
    vertex 7.777778945305438 3.1385465388792806 0.0
    vertex 4.268699590594777 0.38080850517620374 28.0
    vertex 7.777778945305438 3.1385465388792806 28.0
  endloop
endfacet
facet normal -0.8984250444633112 0.4391269058952062 0.0
  outer loop
    vertex 9.737621413444396 7.1482565633409125 28.0
    vertex 7.777778945305438 3.1385465388792806 0.0
    vertex 7.777778945305438 3.1385465388792806 28.0
  endloop
endfacet
facet normal -0.8984250444633112 0.4391269058952062 0.0
  outer loop
    vertex 7.777778945305438 3.1385465388792806 0.0
    vertex 9.737621413444396 7.1482565633409125 28.0
    vertex 9.737621413444396 7.1482565633409125 0.0
  endloop
endfacet
facet normal -0.9999897275814662 0.004532629650109203 0.0
  outer loop
    vertex 9.75785073658851 11.611254183178307 28.0
    vertex 9.737621413444396 7.1482565633409125 0.0
    vertex 9.737621413444396 7.1482565633409125 28.0
  endloop
endfacet
facet normal -0.9999897275814662 0.004532629650109203 0.0
  outer loop
    vertex 9.737621413444396 7.1482565633409125 0.0
    vertex 9.75785073658851 11.611254183178307 28.0
    vertex 9.75785073658851 11.611254183178307 0.0
  endloop
endfacet
facet normal -0.902368887035814 -0.4309644900798055 -0.0
  outer loop
    vertex 7.834437485021971 15.638565748464423 28.0
    vertex 9.75785073658851 11.611254183178307 0.0
    vertex 9.75785073658851 11.611254183178307 28.0
  endloop
endfacet
facet normal -0.902368887035814 -0.4309644900798055 -0.0
  outer loop
    vertex 9.75785073658851 11.611254183178307 0.0
    vertex 7.834437485021971 15.638565748464423 28.0
    vertex 7.834437485021971 15.638565748464423 0.0
  endloop
endfacet
facet normal -0.6250073808166609 -0.7806188403598121 -0.0
  outer loop
    vertex 7.834437485021971 15.638565748464423 28.0
    vertex 4.35050167004907 18.428000855674878 0.0
    vertex 7.834437485021971 15.638565748464423 0.0
  endloop
endfacet
facet normal -0.6250073808166609 -0.7806188403598121 -0.0
  outer loop
    vertex 4.35050167004907 18.428000855674878 0.0
    vertex 7.834437485021971 15.638565748464423 28.0
    vertex 4.35050167004907 18.428000855674878 28.0
  endloop
endfacet
facet normal -0.22315217330439158 -0.9747836208869776 -0.0
  outer loop
    vertex 4.35050167004907 18.428000855674878 28.0
    vertex 2.339372622106634e-14 19.423938704684335 0.0
    vertex 4.35050167004907 18.428000855674878 0.0
  endloop
endfacet
facet normal -0.22315217330439158 -0.9747836208869776 -0.0
  outer loop
    vertex 2.339372622106634e-14 19.423938704684335 0.0
    vertex 4.35050167004907 18.428000855674878 28.0
    vertex 2.339372622106634e-14 19.423938704684335 28.0
  endloop
endfacet
facet normal 0.22315217330438983 -0.974783620886978 0.0
  outer loop
    vertex 2.339372622106634e-14 19.423938704684335 28.0
    vertex -4.350501670049023 18.428000855674885 0.0
    vertex 2.339372622106634e-14 19.423938704684335 0.0
  endloop
endfacet
facet normal 0.22315217330438983 -0.974783620886978 0.0
  outer loop
    vertex -4.350501670049023 18.428000855674885 0.0
    vertex 2.339372622106634e-14 19.423938704684335 28.0
    vertex -4.350501670049023 18.428000855674885 28.0
  endloop
endfacet
facet normal 0.6250073808166591 -0.7806188403598135 0.0
  outer loop
    vertex -4.350501670049023 18.428000855674885 28.0
    vertex -7.834437485021933 15.638565748464437 0.0
    vertex -4.350501670049023 18.428000855674885 0.0
  endloop
endfacet
facet normal 0.6250073808166591 -0.7806188403598135 0.0
  outer loop
    vertex -7.834437485021933 15.638565748464437 0.0
    vertex -4.350501670049023 18.428000855674885 28.0
    vertex -7.834437485021933 15.638565748464437 28.0
  endloop
endfacet
facet normal 0.9023688870358131 -0.430964490079807 -0.0
  outer loop
    vertex -7.834437485021933 15.638565748464437 0.0
    vertex -8.723788831819325 13.77641004082191 28.0
    vertex -8.723788831819325 13.77641004082191 0.0
  endloop
endfacet
facet normal 0.9023688870358131 -0.430964490079807 -0.0
  outer loop
    vertex -8.723788831819325 13.77641004082191 28.0
    vertex -7.834437485021933 15.638565748464437 0.0
    vertex -7.834437485021933 15.638565748464437 28.0
  endloop
endfacet
facet normal 1.0 -8.459899447643695e-15 -0.0
  outer loop
    vertex 49.99999999999997 9.999999999999977 0.0
    vertex 49.99999999999995 7.999999999999977 3.0
    vertex 49.99999999999995 7.999999999999977 0.0
  endloop
endfacet
facet normal 1.0 -8.459899447643695e-15 -0.0
  outer loop
    vertex 49.99999999999995 7.999999999999977 3.0
    vertex 49.99999999999997 9.999999999999977 0.0
    vertex 49.99999999999995 7.999999999999977 28.0
  endloop
endfacet
facet normal 1.0 -8.459899447643695e-15 -0.0
  outer loop
    vertex 49.99999999999995 7.999999999999977 28.0
    vertex 49.99999999999997 9.999999999999977 0.0
    vertex 49.99999999999997 9.999999999999977 28.0
  endloop
endfacet
facet normal 1.0 2.8199664825478975e-15 -0.0
  outer loop
    vertex 49.99999999999995 7.999999999999977 0.0
    vertex 49.99999999999998 -2.255973186038318e-14 3.0
    vertex 49.99999999999998 -2.255973186038318e-14 0.0
  endloop
endfacet
facet normal 1.0 2.8199664825478975e-15 -0.0
  outer loop
    vertex 49.99999999999998 -2.255973186038318e-14 3.0
    vertex 49.99999999999995 7.999999999999977 0.0
    vertex 49.99999999999995 7.999999999999977 3.0
  endloop
endfacet
facet normal -0.34598953061231924 0.9382383730729984 -1.4856377682528727e-32
  outer loop
    vertex 41.98575133553612 -2.955374895343935 28.0
    vertex 47.83211105323111 -0.7994416990807298 3.0
    vertex 41.98575133553612 -2.955374895343935 3.0
  endloop
endfacet
facet normal -0.34598953061231924 0.9382383730729984 -1.4856377682528727e-32
  outer loop
    vertex 47.83211105323111 -0.7994416990807298 3.0
    vertex 41.98575133553612 -2.955374895343935 28.0
    vertex 49.99999999999998 -2.255973186038318e-14 3.0
  endloop
endfacet
facet normal -0.34598953061231924 0.9382383730729984 -1.4856377682528727e-32
  outer loop
    vertex 49.99999999999998 -2.255973186038318e-14 3.0
    vertex 41.98575133553612 -2.955374895343935 28.0
    vertex 49.99999999999998 -2.255973186038318e-14 28.0
  endloop
endfacet
facet normal -0.34598953061231924 0.9382383730729984 -1.4856377682528727e-32
  outer loop
    vertex 49.99999999999998 -2.255973186038318e-14 28.0
    vertex 41.98575133553612 -2.955374895343935 28.0
    vertex 47.83211105323111 -0.7994416990807298 28.0
  endloop
endfacet
facet normal 0.34598953061232124 0.9382383730729978 -2.240111314117883e-18
  outer loop
    vertex -49.99999999999999 0.0 28.0
    vertex -48.21827384132428 -0.6570383550832871 3.0
    vertex -49.99999999999999 0.0 3.0
  endloop
endfacet
facet normal 0.34598953061232124 0.9382383730729978 -2.240111314117883e-18
  outer loop
    vertex -48.21827384132428 -0.6570383550832871 3.0
    vertex -49.99999999999999 0.0 28.0
    vertex -41.98575133553613 -2.955374895343935 3.0
  endloop
endfacet
facet normal 0.34598953061232124 0.9382383730729978 -2.240111314117883e-18
  outer loop
    vertex -41.98575133553613 -2.955374895343935 3.0
    vertex -49.99999999999999 0.0 28.0
    vertex -41.98575133553613 -2.955374895343935 28.0
  endloop
endfacet
facet normal 0.34598953061232124 0.9382383730729978 -2.240111314117883e-18
  outer loop
    vertex -41.98575133553613 -2.955374895343935 28.0
    vertex -49.99999999999999 0.0 28.0
    vertex -48.21827384132428 -0.6570383550832871 28.0
  endloop
endfacet
facet normal 0.285049540729193 0.9585127851677704 -4.486955409155397e-33
  outer loop
    vertex -41.98575133553613 -2.955374895343935 28.0
    vertex -33.798322608609965 -5.390212316896753 3.0
    vertex -41.98575133553613 -2.955374895343935 3.0
  endloop
endfacet
facet normal 0.285049540729193 0.9585127851677704 -4.486955409155397e-33
  outer loop
    vertex -33.798322608609965 -5.390212316896753 3.0
    vertex -41.98575133553613 -2.955374895343935 28.0
    vertex -33.798322608609965 -5.390212316896753 28.0
  endloop
endfacet
facet normal 0.222933797270201 0.974833586841718 -4.980196704271579e-33
  outer loop
    vertex -33.798322608609965 -5.390212316896753 28.0
    vertex -25.4714847861146 -7.294469207589454 3.0
    vertex -33.798322608609965 -5.390212316896753 3.0
  endloop
endfacet
facet normal 0.222933797270201 0.974833586841718 -4.980196704271579e-33
  outer loop
    vertex -25.4714847861146 -7.294469207589454 3.0
    vertex -33.798322608609965 -5.390212316896753 28.0
    vertex -25.4714847861146 -7.294469207589454 28.0
  endloop
endfacet
facet normal 0.15989851116380177 0.9871334591267787 -5.452896011954317e-33
  outer loop
    vertex -25.4714847861146 -7.294469207589454 28.0
    vertex -17.03958386040084 -8.660291013989347 3.0
    vertex -25.4714847861146 -7.294469207589454 3.0
  endloop
endfacet
facet normal 0.15989851116380177 0.9871334591267787 -5.452896011954317e-33
  outer loop
    vertex -17.03958386040084 -8.660291013989347 3.0
    vertex -25.4714847861146 -7.294469207589454 28.0
    vertex -17.03958386040084 -8.660291013989347 28.0
  endloop
endfacet
facet normal 0.0962036862074364 0.9953616683196623 -5.903103573225154e-33
  outer loop
    vertex -17.03958386040084 -8.660291013989347 28.0
    vertex -8.537399181189553 -9.482044084245045 3.0
    vertex -17.03958386040084 -8.660291013989347 3.0
  endloop
endfacet
facet normal 0.0962036862074364 0.9953616683196623 -5.903103573225154e-33
  outer loop
    vertex -8.537399181189553 -9.482044084245045 3.0
    vertex -17.03958386040084 -8.660291013989347 28.0
    vertex -8.537399181189553 -9.482044084245045 28.0
  endloop
endfacet
facet normal 0.032112046620949644 0.9994842752448955 -6.328962401580333e-33
  outer loop
    vertex -8.537399181189553 -9.482044084245045 28.0
    vertex 1.127986593019159e-14 -9.75633890540253 3.0
    vertex -8.537399181189553 -9.482044084245045 3.0
  endloop
endfacet
facet normal 0.032112046620949644 0.9994842752448955 -6.328962401580333e-33
  outer loop
    vertex 1.127986593019159e-14 -9.75633890540253 3.0
    vertex -8.537399181189553 -9.482044084245045 28.0
    vertex 1.127986593019159e-14 -9.75633890540253 28.0
  endloop
endfacet
facet normal -0.032112046620947056 0.9994842752448957 -6.728715942566272e-33
  outer loop
    vertex 1.127986593019159e-14 -9.75633890540253 28.0
    vertex 8.537399181189564 -9.482044084245068 3.0
    vertex 1.127986593019159e-14 -9.75633890540253 3.0
  endloop
endfacet
facet normal -0.032112046620947056 0.9994842752448957 -6.728715942566272e-33
  outer loop
    vertex 8.537399181189564 -9.482044084245068 3.0
    vertex 1.127986593019159e-14 -9.75633890540253 28.0
    vertex 8.537399181189564 -9.482044084245068 28.0
  endloop
endfacet
facet normal -0.09620368620743895 0.9953616683196621 -7.100715319099834e-33
  outer loop
    vertex 8.537399181189564 -9.482044084245068 28.0
    vertex 17.039583860400853 -8.660291013989347 3.0
    vertex 8.537399181189564 -9.482044084245068 3.0
  endloop
endfacet
facet normal -0.09620368620743895 0.9953616683196621 -7.100715319099834e-33
  outer loop
    vertex 17.039583860400853 -8.660291013989347 3.0
    vertex 8.537399181189564 -9.482044084245068 28.0
    vertex 17.039583860400853 -8.660291013989347 28.0
  endloop
endfacet
facet normal -0.1598985111638022 0.9871334591267786 -7.44342613264774e-33
  outer loop
    vertex 17.039583860400853 -8.660291013989347 28.0
    vertex 25.471484786114594 -7.294469207589454 3.0
    vertex 17.039583860400853 -8.660291013989347 3.0
  endloop
endfacet
facet normal -0.1598985111638022 0.9871334591267786 -7.44342613264774e-33
  outer loop
    vertex 25.471484786114594 -7.294469207589454 3.0
    vertex 17.039583860400853 -8.660291013989347 28.0
    vertex 25.471484786114594 -7.294469207589454 28.0
  endloop
endfacet
facet normal -0.22293379727019877 0.9748335868417184 -7.755434792212907e-33
  outer loop
    vertex 25.471484786114594 -7.294469207589454 28.0
    vertex 33.79832260860994 -5.3902123168967755 3.0
    vertex 25.471484786114594 -7.294469207589454 3.0
  endloop
endfacet
facet normal -0.22293379727019877 0.9748335868417184 -7.755434792212907e-33
  outer loop
    vertex 33.79832260860994 -5.3902123168967755 3.0
    vertex 25.471484786114594 -7.294469207589454 28.0
    vertex 33.79832260860994 -5.3902123168967755 28.0
  endloop
endfacet
facet normal -0.285049540729195 0.9585127851677697 -8.035454345021258e-33
  outer loop
    vertex 33.79832260860994 -5.3902123168967755 28.0
    vertex 41.98575133553612 -2.955374895343935 3.0
    vertex 33.79832260860994 -5.3902123168967755 3.0
  endloop
endfacet
facet normal -0.285049540729195 0.9585127851677697 -8.035454345021258e-33
  outer loop
    vertex 41.98575133553612 -2.955374895343935 3.0
    vertex 33.79832260860994 -5.3902123168967755 28.0
    vertex 41.98575133553612 -2.955374895343935 28.0
  endloop
endfacet
facet normal -3.5919238824900104e-32 -9.621006676420344e-32 1.0
  outer loop
    vertex -48.21827384132428 7.342961644916701 28.0
    vertex -50.00000000000001 9.999999999999998 28.0
    vertex -50.00000000000002 7.999999999999999 28.0
  endloop
endfacet
facet normal -3.5919238824900104e-32 -9.621006676420344e-32 1.0
  outer loop
    vertex -50.00000000000001 9.999999999999998 28.0
    vertex -48.21827384132428 7.342961644916701 28.0
    vertex -48.21827384132428 9.342961644916706 28.0
  endloop
endfacet
facet normal -3.5919238824900104e-32 -9.621006676420344e-32 1.0
  outer loop
    vertex -48.21827384132428 9.342961644916706 28.0
    vertex -48.21827384132428 7.342961644916701 28.0
    vertex -41.98575133553616 5.044625104656064 28.0
  endloop
endfacet
facet normal -3.5919238824900104e-32 -9.621006676420344e-32 1.0
  outer loop
    vertex -48.21827384132428 9.342961644916706 28.0
    vertex -41.98575133553616 5.044625104656064 28.0
    vertex -41.985751335536136 7.044625104656063 28.0
  endloop
endfacet
facet normal -3.5919238824900104e-32 -9.621006676420344e-32 1.0
  outer loop
    vertex -41.985751335536136 7.044625104656063 28.0
    vertex -41.98575133553616 5.044625104656064 28.0
    vertex -33.79832260860999 2.6097876831032463 28.0
  endloop
endfacet
facet normal -3.5919238824900104e-32 -9.621006676420344e-32 1.0
  outer loop
    vertex -41.985751335536136 7.044625104656063 28.0
    vertex -33.79832260860999 2.6097876831032463 28.0
    vertex -33.79832260860997 4.609787683103246 28.0
  endloop
endfacet
facet normal -3.5919238824900104e-32 -9.621006676420344e-32 1.0
  outer loop
    vertex -33.79832260860997 4.609787683103246 28.0
    vertex -33.79832260860999 2.6097876831032463 28.0
    vertex -25.471484786114626 0.705530792410545 28.0
  endloop
endfacet
facet normal -3.5919238824900104e-32 -9.621006676420344e-32 1.0
  outer loop
    vertex -33.79832260860997 4.609787683103246 28.0
    vertex -25.471484786114626 0.705530792410545 28.0
    vertex -25.471484786114612 2.7055307924105447 28.0
  endloop
endfacet
facet normal -3.5919238824900104e-32 -9.621006676420344e-32 1.0
  outer loop
    vertex -25.471484786114612 2.7055307924105447 28.0
    vertex -25.471484786114626 0.705530792410545 28.0
    vertex -17.039583860400867 -0.6602910139893488 28.0
  endloop
endfacet
facet normal -3.5919238824900104e-32 -9.621006676420344e-32 1.0
  outer loop
    vertex -25.471484786114612 2.7055307924105447 28.0
    vertex -17.039583860400867 -0.6602910139893488 28.0
    vertex -17.039583860400846 1.339708986010651 28.0
  endloop
endfacet
facet normal -3.5919238824900104e-32 -9.621006676420344e-32 1.0
  outer loop
    vertex -17.039583860400846 1.339708986010651 28.0
    vertex -17.039583860400867 -0.6602910139893488 28.0
    vertex -8.537399181189581 -1.4820440842450462 28.0
  endloop
endfacet
facet normal -3.5919238824900104e-32 -9.621006676420344e-32 1.0
  outer loop
    vertex -17.039583860400846 1.339708986010651 28.0
    vertex -8.537399181189581 -1.4820440842450462 28.0
    vertex -8.537399181189562 0.5179559157549537 28.0
  endloop
endfacet
facet normal -3.5919238824900104e-32 -9.621006676420344e-32 1.0
  outer loop
    vertex -8.537399181189562 0.5179559157549537 28.0
    vertex -8.537399181189581 -1.4820440842450462 28.0
    vertex -1.709686000235084e-14 -1.7563389054025307 28.0
  endloop
endfacet
facet normal -3.5919238824900104e-32 -9.621006676420344e-32 1.0
  outer loop
    vertex -8.537399181189562 0.5179559157549537 28.0
    vertex -1.709686000235084e-14 -1.7563389054025307 28.0
    vertex -4.268699590594783 0.38080850517621645 28.0
  endloop
endfacet
facet normal -3.5919238824900104e-32 -9.621006676420344e-32 1.0
  outer loop
    vertex -4.268699590594783 0.38080850517621645 28.0
    vertex -1.709686000235084e-14 -1.7563389054025307 28.0
    vertex 2.3718882554718227e-15 0.24366109459746926 28.0
  endloop
endfacet
facet normal -3.5919238824900104e-32 -9.621006676420344e-32 1.0
  outer loop
    vertex 2.3718882554718227e-15 0.24366109459746926 28.0
    vertex -1.709686000235084e-14 -1.7563389054025307 28.0
    vertex 8.537399181189535 -1.4820440842450686 28.0
  endloop
endfacet
facet normal -3.5919238824900104e-32 -9.621006676420344e-32 1.0
  outer loop
    vertex 2.3718882554718227e-15 0.24366109459746926 28.0
    vertex 8.537399181189535 -1.4820440842450686 28.0
    vertex 4.268699590594777 0.38080850517620374 28.0
  endloop
endfacet
facet normal -3.5919238824900104e-32 -9.621006676420344e-32 1.0
  outer loop
    vertex 4.268699590594777 0.38080850517620374 28.0
    vertex 8.537399181189535 -1.4820440842450686 28.0
    vertex 7.777778945305438 3.1385465388792806 28.0
  endloop
endfacet
facet normal -3.5919238824900104e-32 -9.621006676420344e-32 1.0
  outer loop
    vertex 7.777778945305438 3.1385465388792806 28.0
    vertex 8.537399181189535 -1.4820440842450686 28.0
    vertex 9.737621413444396 7.1482565633409125 28.0
  endloop
endfacet
facet normal -3.5919238824900104e-32 -9.621006676420344e-32 1.0
  outer loop
    vertex 9.737621413444396 7.1482565633409125 28.0
    vertex 8.537399181189535 -1.4820440842450686 28.0
    vertex 12.788491520795198 0.9288324508827911 28.0
  endloop
endfacet
facet normal -3.5919238824900104e-32 -9.621006676420344e-32 1.0
  outer loop
    vertex 12.788491520795198 0.9288324508827911 28.0
    vertex 8.537399181189535 -1.4820440842450686 28.0
    vertex 17.03958386040082 -0.6602910139893488 28.0
  endloop
endfacet
facet normal -3.5919238824900104e-32 -9.621006676420344e-32 1.0
  outer loop
    vertex 9.737621413444396 7.1482565633409125 28.0
    vertex 12.788491520795198 0.9288324508827911 28.0
    vertex 9.75785073658851 11.611254183178307 28.0
  endloop
endfacet
facet normal -3.5919238824900104e-32 -9.621006676420344e-32 1.0
  outer loop
    vertex 9.75785073658851 11.611254183178307 28.0
    vertex 12.788491520795198 0.9288324508827911 28.0
    vertex 10.78695298882176 14.681470941099972 28.0
  endloop
endfacet
facet normal -3.5919238824900104e-32 -9.621006676420344e-32 1.0
  outer loop
    vertex 10.78695298882176 14.681470941099972 28.0
    vertex 12.788491520795198 0.9288324508827911 28.0
    vertex 11.970541435955939 8.583618688225021 28.0
  endloop
endfacet
facet normal -3.5919238824900104e-32 -9.621006676420344e-32 1.0
  outer loop
    vertex 10.78695298882176 14.681470941099972 28.0
    vertex 11.970541435955939 8.583618688225021 28.0
    vertex 11.78014595189381 11.710456002252895 28.0
  endloop
endfacet
facet normal -3.5919238824900104e-32 -9.621006676420344e-32 1.0
  outer loop
    vertex 12.788491520795198 0.9288324508827911 28.0
    vertex 17.03958386040082 -0.6602910139893488 28.0
    vertex 17.03958386040084 1.339708986010651 28.0
  endloop
endfacet
facet normal -3.5919238824900104e-32 -9.621006676420344e-32 1.0
  outer loop
    vertex 17.03958386040084 1.339708986010651 28.0
    vertex 17.03958386040082 -0.6602910139893488 28.0
    vertex 25.47148478611456 0.705530792410545 28.0
  endloop
endfacet
facet normal -3.5919238824900104e-32 -9.621006676420344e-32 1.0
  outer loop
    vertex 17.03958386040084 1.339708986010651 28.0
    vertex 25.47148478611456 0.705530792410545 28.0
    vertex 25.471484786114576 2.7055307924105447 28.0
  endloop
endfacet
facet normal -3.5919238824900104e-32 -9.621006676420344e-32 1.0
  outer loop
    vertex 25.471484786114576 2.7055307924105447 28.0
    vertex 25.47148478611456 0.705530792410545 28.0
    vertex 33.798322608609915 2.609787683103224 28.0
  endloop
endfacet
facet normal -3.5919238824900104e-32 -9.621006676420344e-32 1.0
  outer loop
    vertex 25.471484786114576 2.7055307924105447 28.0
    vertex 33.798322608609915 2.609787683103224 28.0
    vertex 33.798322608609936 4.609787683103223 28.0
  endloop
endfacet
facet normal -3.5919238824900104e-32 -9.621006676420344e-32 1.0
  outer loop
    vertex 33.798322608609936 4.609787683103223 28.0
    vertex 33.798322608609915 2.609787683103224 28.0
    vertex 41.985751335536094 5.044625104656064 28.0
  endloop
endfacet
facet normal -3.5919238824900104e-32 -9.621006676420344e-32 1.0
  outer loop
    vertex 33.798322608609936 4.609787683103223 28.0
    vertex 41.985751335536094 5.044625104656064 28.0
    vertex 41.98575133553611 7.044625104656063 28.0
  endloop
endfacet
facet normal -3.5919238824900104e-32 -9.621006676420344e-32 1.0
  outer loop
    vertex 41.98575133553611 7.044625104656063 28.0
    vertex 41.985751335536094 5.044625104656064 28.0
    vertex 47.83211105323111 7.200558300919278 28.0
  endloop
endfacet
facet normal -3.5919238824900104e-32 -9.621006676420344e-32 1.0
  outer loop
    vertex 41.98575133553611 7.044625104656063 28.0
    vertex 47.83211105323111 7.200558300919278 28.0
    vertex 47.83211105323111 9.20055830091927 28.0
  endloop
endfacet
facet normal -3.5919238824900104e-32 -9.621006676420344e-32 1.0
  outer loop
    vertex 47.83211105323111 9.20055830091927 28.0
    vertex 47.83211105323111 7.200558300919278 28.0
    vertex 49.99999999999995 7.999999999999977 28.0
  endloop
endfacet
facet normal -3.5919238824900104e-32 -9.621006676420344e-32 1.0
  outer loop
    vertex 47.83211105323111 9.20055830091927 28.0
    vertex 49.99999999999995 7.999999999999977 28.0
    vertex 49.99999999999997 9.999999999999977 28.0
  endloop
endfacet
facet normal -3.5919238824900104e-32 -9.621006676420344e-32 1.0
  outer loop
    vertex -8.723788831819325 13.77641004082191 28.0
    vertex -9.94663297236241 16.136947904224634 28.0
    vertex -10.64589863788756 14.73538875948448 28.0
  endloop
endfacet
facet normal -3.5919238824900104e-32 -9.621006676420344e-32 1.0
  outer loop
    vertex -9.94663297236241 16.136947904224634 28.0
    vertex -8.723788831819325 13.77641004082191 28.0
    vertex -7.870255041833799 18.4825857105285 28.0
  endloop
endfacet
facet normal -3.5919238824900104e-32 -9.621006676420344e-32 1.0
  outer loop
    vertex -7.870255041833799 18.4825857105285 28.0
    vertex -8.723788831819325 13.77641004082191 28.0
    vertex -7.834437485021933 15.638565748464437 28.0
  endloop
endfacet
facet normal -3.5919238824900104e-32 -9.621006676420344e-32 1.0
  outer loop
    vertex -7.870255041833799 18.4825857105285 28.0
    vertex -7.834437485021933 15.638565748464437 28.0
    vertex -5.257532236415615 20.210891693506085 28.0
  endloop
endfacet
facet normal -3.5919238824900104e-32 -9.621006676420344e-32 1.0
  outer loop
    vertex -5.257532236415615 20.210891693506085 28.0
    vertex -7.834437485021933 15.638565748464437 28.0
    vertex -4.350501670049023 18.428000855674885 28.0
  endloop
endfacet
facet normal -3.5919238824900104e-32 -9.621006676420344e-32 1.0
  outer loop
    vertex -5.257532236415615 20.210891693506085 28.0
    vertex -4.350501670049023 18.428000855674885 28.0
    vertex -2.286517297568542 21.204084656578136 28.0
  endloop
endfacet
facet normal -3.5919238824900104e-32 -9.621006676420344e-32 1.0
  outer loop
    vertex -2.286517297568542 21.204084656578136 28.0
    vertex -4.350501670049023 18.428000855674885 28.0
    vertex 2.339372622106634e-14 19.423938704684335 28.0
  endloop
endfacet
facet normal -3.5919238824900104e-32 -9.621006676420344e-32 1.0
  outer loop
    vertex -2.286517297568542 21.204084656578136 28.0
    vertex 2.339372622106634e-14 19.423938704684335 28.0
    vertex 0.840320016459337 21.394480140640265 28.0
  endloop
endfacet
facet normal -3.5919238824900104e-32 -9.621006676420344e-32 1.0
  outer loop
    vertex 0.840320016459337 21.394480140640265 28.0
    vertex 2.339372622106634e-14 19.423938704684335 28.0
    vertex 4.35050167004907 18.428000855674878 28.0
  endloop
endfacet
facet normal -3.5919238824900104e-32 -9.621006676420344e-32 1.0
  outer loop
    vertex 0.840320016459337 21.394480140640265 28.0
    vertex 4.35050167004907 18.428000855674878 28.0
    vertex 3.9098909100599974 20.769103008097062 28.0
  endloop
endfacet
facet normal -3.5919238824900104e-32 -9.621006676420344e-32 1.0
  outer loop
    vertex 3.9098909100599974 20.769103008097062 28.0
    vertex 4.35050167004907 18.428000855674878 28.0
    vertex 6.713009199540309 19.370571677046765 28.0
  endloop
endfacet
facet normal -3.5919238824900104e-32 -9.621006676420344e-32 1.0
  outer loop
    vertex 6.713009199540309 19.370571677046765 28.0
    vertex 4.35050167004907 18.428000855674878 28.0
    vertex 7.834437485021971 15.638565748464423 28.0
  endloop
endfacet
facet normal -3.5919238824900104e-32 -9.621006676420344e-32 1.0
  outer loop
    vertex 6.713009199540309 19.370571677046765 28.0
    vertex 7.834437485021971 15.638565748464423 28.0
    vertex 9.058647005844177 17.29419374651815 28.0
  endloop
endfacet
facet normal -3.5919238824900104e-32 -9.621006676420344e-32 1.0
  outer loop
    vertex 9.058647005844177 17.29419374651815 28.0
    vertex 7.834437485021971 15.638565748464423 28.0
    vertex 9.75785073658851 11.611254183178307 28.0
  endloop
endfacet
facet normal -3.5919238824900104e-32 -9.621006676420344e-32 1.0
  outer loop
    vertex 9.058647005844177 17.29419374651815 28.0
    vertex 9.75785073658851 11.611254183178307 28.0
    vertex 10.78695298882176 14.681470941099972 28.0
  endloop
endfacet
facet normal -0.4464401956622055 -0.8948134731311838 0.0
  outer loop
    vertex -8.723788831819325 13.77641004082191 28.0
    vertex -10.64589863788756 14.73538875948448 0.0
    vertex -8.723788831819325 13.77641004082191 0.0
  endloop
endfacet
facet normal -0.4464401956622055 -0.8948134731311838 0.0
  outer loop
    vertex -10.64589863788756 14.73538875948448 0.0
    vertex -8.723788831819325 13.77641004082191 28.0
    vertex -10.64589863788756 14.73538875948448 28.0
  endloop
endfacet
facet normal -0.222933797270201 -0.974833586841718 3.3062577430925013e-32
  outer loop
    vertex -25.471484786114626 0.705530792410545 28.0
    vertex -33.79832260860999 2.6097876831032463 3.0
    vertex -25.471484786114626 0.705530792410545 3.0
  endloop
endfacet
facet normal -0.222933797270201 -0.974833586841718 3.3062577430925013e-32
  outer loop
    vertex -33.79832260860999 2.6097876831032463 3.0
    vertex -25.471484786114626 0.705530792410545 28.0
    vertex -33.79832260860999 2.6097876831032463 28.0
  endloop
endfacet
facet normal -0.15989851116380177 -0.9871334591267787 3.343608342352431e-32
  outer loop
    vertex -17.039583860400867 -0.6602910139893488 28.0
    vertex -25.471484786114626 0.705530792410545 3.0
    vertex -17.039583860400867 -0.6602910139893488 3.0
  endloop
endfacet
facet normal -0.15989851116380177 -0.9871334591267787 3.343608342352431e-32
  outer loop
    vertex -25.471484786114626 0.705530792410545 3.0
    vertex -17.039583860400867 -0.6602910139893488 28.0
    vertex -25.471484786114626 0.705530792410545 28.0
  endloop
endfacet
facet normal -0.0962036862074364 -0.9953616683196623 3.367167446089257e-32
  outer loop
    vertex -8.537399181189581 -1.4820440842450462 28.0
    vertex -17.039583860400867 -0.6602910139893488 3.0
    vertex -8.537399181189581 -1.4820440842450462 3.0
  endloop
endfacet
facet normal -0.0962036862074364 -0.9953616683196623 3.367167446089257e-32
  outer loop
    vertex -17.039583860400867 -0.6602910139893488 3.0
    vertex -8.537399181189581 -1.4820440842450462 28.0
    vertex -17.039583860400867 -0.6602910139893488 28.0
  endloop
endfacet
facet normal -0.032112046620949644 -0.9994842752448955 3.3768378792631913e-32
  outer loop
    vertex -1.709686000235084e-14 -1.7563389054025307 28.0
    vertex -8.537399181189581 -1.4820440842450462 3.0
    vertex -1.709686000235084e-14 -1.7563389054025307 3.0
  endloop
endfacet
facet normal -0.032112046620949644 -0.9994842752448955 3.3768378792631913e-32
  outer loop
    vertex -8.537399181189581 -1.4820440842450462 3.0
    vertex -1.709686000235084e-14 -1.7563389054025307 28.0
    vertex -8.537399181189581 -1.4820440842450462 28.0
  endloop
endfacet
facet normal 0.032112046620947056 -0.9994842752448957 3.3725797539082493e-32
  outer loop
    vertex 8.537399181189535 -1.4820440842450686 28.0
    vertex -1.709686000235084e-14 -1.7563389054025307 3.0
    vertex 8.537399181189535 -1.4820440842450686 3.0
  endloop
endfacet
facet normal 0.032112046620947056 -0.9994842752448957 3.3725797539082493e-32
  outer loop
    vertex -1.709686000235084e-14 -1.7563389054025307 3.0
    vertex 8.537399181189535 -1.4820440842450686 28.0
    vertex -1.709686000235084e-14 -1.7563389054025307 28.0
  endloop
endfacet
facet normal 0.09620368620743901 -0.9953616683196621 3.354410633659507e-32
  outer loop
    vertex 17.03958386040082 -0.6602910139893488 28.0
    vertex 8.537399181189535 -1.4820440842450686 3.0
    vertex 17.03958386040082 -0.6602910139893488 3.0
  endloop
endfacet
facet normal 0.09620368620743901 -0.9953616683196621 3.354410633659507e-32
  outer loop
    vertex 8.537399181189535 -1.4820440842450686 3.0
    vertex 17.03958386040082 -0.6602910139893488 28.0
    vertex 8.537399181189535 -1.4820440842450686 28.0
  endloop
endfacet
facet normal 0.1598985111638022 -0.9871334591267786 3.322405461307784e-32
  outer loop
    vertex 25.47148478611456 0.705530792410545 28.0
    vertex 17.03958386040082 -0.6602910139893488 3.0
    vertex 25.47148478611456 0.705530792410545 3.0
  endloop
endfacet
facet normal 0.1598985111638022 -0.9871334591267786 3.322405461307784e-32
  outer loop
    vertex 17.03958386040082 -0.6602910139893488 3.0
    vertex 25.47148478611456 0.705530792410545 28.0
    vertex 17.03958386040082 -0.6602910139893488 28.0
  endloop
endfacet
facet normal 0.2229337972701986 -0.9748335868417184 3.27669624968054e-32
  outer loop
    vertex 33.798322608609915 2.609787683103224 28.0
    vertex 25.47148478611456 0.705530792410545 3.0
    vertex 33.798322608609915 2.609787683103224 3.0
  endloop
endfacet
facet normal 0.2229337972701986 -0.9748335868417184 3.27669624968054e-32
  outer loop
    vertex 25.47148478611456 0.705530792410545 3.0
    vertex 33.798322608609915 2.609787683103224 28.0
    vertex 25.47148478611456 0.705530792410545 28.0
  endloop
endfacet
facet normal 0.285049540729195 -0.9585127851677697 3.217471537124069e-32
  outer loop
    vertex 41.985751335536094 5.044625104656064 28.0
    vertex 33.798322608609915 2.609787683103224 3.0
    vertex 41.985751335536094 5.044625104656064 3.0
  endloop
endfacet
facet normal 0.285049540729195 -0.9585127851677697 3.217471537124069e-32
  outer loop
    vertex 33.798322608609915 2.609787683103224 3.0
    vertex 41.985751335536094 5.044625104656064 28.0
    vertex 33.798322608609915 2.609787683103224 28.0
  endloop
endfacet
facet normal -0.3459895306123212 -0.9382383730729978 -2.7854659376957895e-32
  outer loop
    vertex -41.98575133553616 5.044625104656064 28.0
    vertex -48.21827384132428 7.342961644916701 3.0
    vertex -41.98575133553616 5.044625104656064 3.0
  endloop
endfacet
facet normal -0.3459895306123212 -0.9382383730729978 -2.7854659376957895e-32
  outer loop
    vertex -48.21827384132428 7.342961644916701 3.0
    vertex -41.98575133553616 5.044625104656064 28.0
    vertex -50.00000000000002 7.999999999999999 3.0
  endloop
endfacet
facet normal -0.3459895306123212 -0.9382383730729978 -2.7854659376957895e-32
  outer loop
    vertex -50.00000000000002 7.999999999999999 3.0
    vertex -41.98575133553616 5.044625104656064 28.0
    vertex -50.00000000000002 7.999999999999999 28.0
  endloop
endfacet
facet normal -0.3459895306123212 -0.9382383730729978 -2.7854659376957895e-32
  outer loop
    vertex -50.00000000000002 7.999999999999999 28.0
    vertex -41.98575133553616 5.044625104656064 28.0
    vertex -48.21827384132428 7.342961644916701 28.0
  endloop
endfacet
facet normal -0.285049540729193 -0.9585127851677704 3.2552697096018687e-32
  outer loop
    vertex -33.79832260860999 2.6097876831032463 28.0
    vertex -41.98575133553616 5.044625104656064 3.0
    vertex -33.79832260860999 2.6097876831032463 3.0
  endloop
endfacet
facet normal -0.285049540729193 -0.9585127851677704 3.2552697096018687e-32
  outer loop
    vertex -41.98575133553616 5.044625104656064 3.0
    vertex -33.79832260860999 2.6097876831032463 28.0
    vertex -41.98575133553616 5.044625104656064 28.0
  endloop
endfacet
facet normal -1.0 -9.16134690377703e-16 -8.514483825508118e-17
  outer loop
    vertex -50.00000000000001 9.999999999999998 28.0
    vertex -50.00000000000002 7.999999999999999 3.0
    vertex -50.00000000000002 7.999999999999999 28.0
  endloop
endfacet
facet normal -1.0 -9.16134690377703e-16 -8.514483825508118e-17
  outer loop
    vertex -49.99999999999999 0.0 28.0
    vertex -50.00000000000001 -1.9999999999999991 0.0
    vertex -50.00000000000001 -1.9999999999999991 28.0
  endloop
endfacet
facet normal -1.0 -9.16134690377703e-16 -8.514483825508118e-17
  outer loop
    vertex -50.00000000000001 -1.9999999999999991 0.0
    vertex -49.99999999999999 0.0 28.0
    vertex -49.99999999999999 0.0 3.0
  endloop
endfacet
facet normal -1.0 -9.16134690377703e-16 -8.514483825508118e-17
  outer loop
    vertex -50.00000000000001 -1.9999999999999991 0.0
    vertex -49.99999999999999 0.0 3.0
    vertex -50.00000000000001 9.999999999999998 0.0
  endloop
endfacet
facet normal -1.0 -9.16134690377703e-16 -8.514483825508118e-17
  outer loop
    vertex -50.00000000000001 9.999999999999998 0.0
    vertex -49.99999999999999 0.0 3.0
    vertex -50.00000000000002 7.999999999999999 3.0
  endloop
endfacet
facet normal -1.0 -9.16134690377703e-16 -8.514483825508118e-17
  outer loop
    vertex -50.00000000000001 9.999999999999998 0.0
    vertex -50.00000000000002 7.999999999999999 3.0
    vertex -50.00000000000001 9.999999999999998 28.0
  endloop
endfacet
facet normal 0.345989530612319 -0.9382383730729986 2.2401113141178983e-18
  outer loop
    vertex 49.99999999999995 7.999999999999977 28.0
    vertex 47.83211105323111 7.200558300919278 3.0
    vertex 49.99999999999995 7.999999999999977 3.0
  endloop
endfacet
facet normal 0.345989530612319 -0.9382383730729986 2.2401113141178983e-18
  outer loop
    vertex 47.83211105323111 7.200558300919278 3.0
    vertex 49.99999999999995 7.999999999999977 28.0
    vertex 41.985751335536094 5.044625104656064 3.0
  endloop
endfacet
facet normal 0.345989530612319 -0.9382383730729986 2.2401113141178983e-18
  outer loop
    vertex 41.985751335536094 5.044625104656064 3.0
    vertex 49.99999999999995 7.999999999999977 28.0
    vertex 41.985751335536094 5.044625104656064 28.0
  endloop
endfacet
facet normal 0.345989530612319 -0.9382383730729986 2.2401113141178983e-18
  outer loop
    vertex 41.985751335536094 5.044625104656064 28.0
    vertex 49.99999999999995 7.999999999999977 28.0
    vertex 47.83211105323111 7.200558300919278 28.0
  endloop
endfacet
facet normal -1.1841343501916487e-32 1.85074305094325e-32 1.0
  outer loop
    vertex -48.21827384132428 -2.6570383550832917 28.0
    vertex -49.99999999999999 0.0 28.0
    vertex -50.00000000000001 -1.9999999999999991 28.0
  endloop
endfacet
facet normal -1.1841343501916487e-32 1.85074305094325e-32 1.0
  outer loop
    vertex -49.99999999999999 0.0 28.0
    vertex -48.21827384132428 -2.6570383550832917 28.0
    vertex -48.21827384132428 -0.6570383550832871 28.0
  endloop
endfacet
facet normal -1.1841343501916487e-32 1.85074305094325e-32 1.0
  outer loop
    vertex -48.21827384132428 -0.6570383550832871 28.0
    vertex -48.21827384132428 -2.6570383550832917 28.0
    vertex -41.98575133553614 -4.955374895343934 28.0
  endloop
endfacet
facet normal -1.1841343501916487e-32 1.85074305094325e-32 1.0
  outer loop
    vertex -48.21827384132428 -0.6570383550832871 28.0
    vertex -41.98575133553614 -4.955374895343934 28.0
    vertex -41.98575133553613 -2.955374895343935 28.0
  endloop
endfacet
facet normal -1.1841343501916487e-32 1.85074305094325e-32 1.0
  outer loop
    vertex -41.98575133553613 -2.955374895343935 28.0
    vertex -41.98575133553614 -4.955374895343934 28.0
    vertex -33.79832260860998 -7.390212316896752 28.0
  endloop
endfacet
facet normal -1.1841343501916487e-32 1.85074305094325e-32 1.0
  outer loop
    vertex -41.98575133553613 -2.955374895343935 28.0
    vertex -33.79832260860998 -7.390212316896752 28.0
    vertex -33.798322608609965 -5.390212316896753 28.0
  endloop
endfacet
facet normal -1.1841343501916487e-32 1.85074305094325e-32 1.0
  outer loop
    vertex -33.798322608609965 -5.390212316896753 28.0
    vertex -33.79832260860998 -7.390212316896752 28.0
    vertex -25.471484786114615 -9.294469207589454 28.0
  endloop
endfacet
facet normal -1.1841343501916487e-32 1.85074305094325e-32 1.0
  outer loop
    vertex -33.798322608609965 -5.390212316896753 28.0
    vertex -25.471484786114615 -9.294469207589454 28.0
    vertex -25.4714847861146 -7.294469207589454 28.0
  endloop
endfacet
facet normal -1.1841343501916487e-32 1.85074305094325e-32 1.0
  outer loop
    vertex -25.4714847861146 -7.294469207589454 28.0
    vertex -25.471484786114615 -9.294469207589454 28.0
    vertex -17.039583860400853 -10.660291013989347 28.0
  endloop
endfacet
facet normal -1.1841343501916487e-32 1.85074305094325e-32 1.0
  outer loop
    vertex -25.4714847861146 -7.294469207589454 28.0
    vertex -17.039583860400853 -10.660291013989347 28.0
    vertex -17.03958386040084 -8.660291013989347 28.0
  endloop
endfacet
facet normal -1.1841343501916487e-32 1.85074305094325e-32 1.0
  outer loop
    vertex -17.03958386040084 -8.660291013989347 28.0
    vertex -17.039583860400853 -10.660291013989347 28.0
    vertex -8.537399181189567 -11.482044084245045 28.0
  endloop
endfacet
facet normal -1.1841343501916487e-32 1.85074305094325e-32 1.0
  outer loop
    vertex -17.03958386040084 -8.660291013989347 28.0
    vertex -8.537399181189567 -11.482044084245045 28.0
    vertex -8.537399181189553 -9.482044084245045 28.0
  endloop
endfacet
facet normal -1.1841343501916487e-32 1.85074305094325e-32 1.0
  outer loop
    vertex -8.537399181189553 -9.482044084245045 28.0
    vertex -8.537399181189567 -11.482044084245045 28.0
    vertex -3.389109261491499e-15 -11.75633890540253 28.0
  endloop
endfacet
facet normal -1.1841343501916487e-32 1.85074305094325e-32 1.0
  outer loop
    vertex -8.537399181189553 -9.482044084245045 28.0
    vertex -3.389109261491499e-15 -11.75633890540253 28.0
    vertex 1.127986593019159e-14 -9.75633890540253 28.0
  endloop
endfacet
facet normal -1.1841343501916487e-32 1.85074305094325e-32 1.0
  outer loop
    vertex 1.127986593019159e-14 -9.75633890540253 28.0
    vertex -3.389109261491499e-15 -11.75633890540253 28.0
    vertex 8.53739918118955 -11.482044084245068 28.0
  endloop
endfacet
facet normal -1.1841343501916487e-32 1.85074305094325e-32 1.0
  outer loop
    vertex 1.127986593019159e-14 -9.75633890540253 28.0
    vertex 8.53739918118955 -11.482044084245068 28.0
    vertex 8.537399181189564 -9.482044084245068 28.0
  endloop
endfacet
facet normal -1.1841343501916487e-32 1.85074305094325e-32 1.0
  outer loop
    vertex 8.537399181189564 -9.482044084245068 28.0
    vertex 8.53739918118955 -11.482044084245068 28.0
    vertex 17.039583860400835 -10.660291013989347 28.0
  endloop
endfacet
facet normal -1.1841343501916487e-32 1.85074305094325e-32 1.0
  outer loop
    vertex 8.537399181189564 -9.482044084245068 28.0
    vertex 17.039583860400835 -10.660291013989347 28.0
    vertex 17.039583860400853 -8.660291013989347 28.0
  endloop
endfacet
facet normal -1.1841343501916487e-32 1.85074305094325e-32 1.0
  outer loop
    vertex 17.039583860400853 -8.660291013989347 28.0
    vertex 17.039583860400835 -10.660291013989347 28.0
    vertex 25.471484786114573 -9.294469207589454 28.0
  endloop
endfacet
facet normal -1.1841343501916487e-32 1.85074305094325e-32 1.0
  outer loop
    vertex 17.039583860400853 -8.660291013989347 28.0
    vertex 25.471484786114573 -9.294469207589454 28.0
    vertex 25.471484786114594 -7.294469207589454 28.0
  endloop
endfacet
facet normal -1.1841343501916487e-32 1.85074305094325e-32 1.0
  outer loop
    vertex 25.471484786114594 -7.294469207589454 28.0
    vertex 25.471484786114573 -9.294469207589454 28.0
    vertex 33.79832260860993 -7.390212316896775 28.0
  endloop
endfacet
facet normal -1.1841343501916487e-32 1.85074305094325e-32 1.0
  outer loop
    vertex 25.471484786114594 -7.294469207589454 28.0
    vertex 33.79832260860993 -7.390212316896775 28.0
    vertex 33.79832260860994 -5.3902123168967755 28.0
  endloop
endfacet
facet normal -1.1841343501916487e-32 1.85074305094325e-32 1.0
  outer loop
    vertex 33.79832260860994 -5.3902123168967755 28.0
    vertex 33.79832260860993 -7.390212316896775 28.0
    vertex 41.98575133553611 -4.955374895343934 28.0
  endloop
endfacet
facet normal -1.1841343501916487e-32 1.85074305094325e-32 1.0
  outer loop
    vertex 33.79832260860994 -5.3902123168967755 28.0
    vertex 41.98575133553611 -4.955374895343934 28.0
    vertex 41.98575133553612 -2.955374895343935 28.0
  endloop
endfacet
facet normal -1.1841343501916487e-32 1.85074305094325e-32 1.0
  outer loop
    vertex 41.98575133553612 -2.955374895343935 28.0
    vertex 41.98575133553611 -4.955374895343934 28.0
    vertex 47.83211105323111 -2.7994416990807256 28.0
  endloop
endfacet
facet normal -1.1841343501916487e-32 1.85074305094325e-32 1.0
  outer loop
    vertex 41.98575133553612 -2.955374895343935 28.0
    vertex 47.83211105323111 -2.7994416990807256 28.0
    vertex 47.83211105323111 -0.7994416990807298 28.0
  endloop
endfacet
facet normal -1.1841343501916487e-32 1.85074305094325e-32 1.0
  outer loop
    vertex 47.83211105323111 -0.7994416990807298 28.0
    vertex 47.83211105323111 -2.7994416990807256 28.0
    vertex 49.999999999999964 -2.0000000000000218 28.0
  endloop
endfacet
facet normal -1.1841343501916487e-32 1.85074305094325e-32 1.0
  outer loop
    vertex 47.83211105323111 -0.7994416990807298 28.0
    vertex 49.999999999999964 -2.0000000000000218 28.0
    vertex 49.99999999999998 -2.255973186038318e-14 28.0
  endloop
endfacet
facet normal -0.3459895306123191 0.9382383730729986 -1.0468592080057146e-32
  outer loop
    vertex 41.98575133553611 7.044625104656063 28.0
    vertex 47.83211105323111 9.20055830091927 0.0
    vertex 41.98575133553611 7.044625104656063 0.0
  endloop
endfacet
facet normal -0.3459895306123191 0.9382383730729986 -1.0468592080057146e-32
  outer loop
    vertex 47.83211105323111 9.20055830091927 0.0
    vertex 41.98575133553611 7.044625104656063 28.0
    vertex 49.99999999999997 9.999999999999977 0.0
  endloop
endfacet
facet normal -0.3459895306123191 0.9382383730729986 -1.0468592080057146e-32
  outer loop
    vertex 49.99999999999997 9.999999999999977 0.0
    vertex 41.98575133553611 7.044625104656063 28.0
    vertex 49.99999999999997 9.999999999999977 28.0
  endloop
endfacet
facet normal -0.3459895306123191 0.9382383730729986 -1.0468592080057146e-32
  outer loop
    vertex 49.99999999999997 9.999999999999977 28.0
    vertex 41.98575133553611 7.044625104656063 28.0
    vertex 47.83211105323111 9.20055830091927 28.0
  endloop
endfacet
facet normal 0.345989530612319 -0.9382383730729986 -5.181553052300007e-33
  outer loop
    vertex 49.999999999999964 -2.0000000000000218 28.0
    vertex 47.83211105323111 -2.7994416990807256 0.0
    vertex 49.999999999999964 -2.0000000000000218 0.0
  endloop
endfacet
facet normal 0.345989530612319 -0.9382383730729986 -5.181553052300007e-33
  outer loop
    vertex 47.83211105323111 -2.7994416990807256 0.0
    vertex 49.999999999999964 -2.0000000000000218 28.0
    vertex 41.98575133553611 -4.955374895343934 0.0
  endloop
endfacet
facet normal 0.345989530612319 -0.9382383730729986 -5.181553052300007e-33
  outer loop
    vertex 41.98575133553611 -4.955374895343934 0.0
    vertex 49.999999999999964 -2.0000000000000218 28.0
    vertex 41.98575133553611 -4.955374895343934 28.0
  endloop
endfacet
facet normal 0.345989530612319 -0.9382383730729986 -5.181553052300007e-33
  outer loop
    vertex 41.98575133553611 -4.955374895343934 28.0
    vertex 49.999999999999964 -2.0000000000000218 28.0
    vertex 47.83211105323111 -2.7994416990807256 28.0
  endloop
endfacet
facet normal 1.0 -5.639932965095797e-15 -0.0
  outer loop
    vertex 49.99999999999998 -2.255973186038318e-14 0.0
    vertex 49.999999999999964 -2.0000000000000218 28.0
    vertex 49.999999999999964 -2.0000000000000218 0.0
  endloop
endfacet
facet normal 1.0 -5.639932965095797e-15 -0.0
  outer loop
    vertex 49.999999999999964 -2.0000000000000218 28.0
    vertex 49.99999999999998 -2.255973186038318e-14 0.0
    vertex 49.99999999999998 -2.255973186038318e-14 28.0
  endloop
endfacet
facet normal 1.0 -5.639932965095797e-15 -0.0
  outer loop
    vertex 49.99999999999998 -2.255973186038318e-14 28.0
    vertex 49.99999999999998 -2.255973186038318e-14 0.0
    vertex 49.99999999999998 -2.255973186038318e-14 3.0
  endloop
endfacet
facet normal 0.285049540729193 0.9585127851677704 0.0
  outer loop
    vertex -41.985751335536136 7.044625104656063 28.0
    vertex -33.79832260860997 4.609787683103246 0.0
    vertex -41.985751335536136 7.044625104656063 0.0
  endloop
endfacet
facet normal 0.285049540729193 0.9585127851677704 0.0
  outer loop
    vertex -33.79832260860997 4.609787683103246 0.0
    vertex -41.985751335536136 7.044625104656063 28.0
    vertex -33.79832260860997 4.609787683103246 28.0
  endloop
endfacet
facet normal 0.22293379727020093 0.974833586841718 0.0
  outer loop
    vertex -33.79832260860997 4.609787683103246 28.0
    vertex -25.471484786114612 2.7055307924105447 0.0
    vertex -33.79832260860997 4.609787683103246 0.0
  endloop
endfacet
facet normal 0.22293379727020093 0.974833586841718 0.0
  outer loop
    vertex -25.471484786114612 2.7055307924105447 0.0
    vertex -33.79832260860997 4.609787683103246 28.0
    vertex -25.471484786114612 2.7055307924105447 28.0
  endloop
endfacet
facet normal 0.15989851116380172 0.9871334591267786 0.0
  outer loop
    vertex -25.471484786114612 2.7055307924105447 28.0
    vertex -17.039583860400846 1.339708986010651 0.0
    vertex -25.471484786114612 2.7055307924105447 0.0
  endloop
endfacet
facet normal 0.15989851116380172 0.9871334591267786 0.0
  outer loop
    vertex -17.039583860400846 1.339708986010651 0.0
    vertex -25.471484786114612 2.7055307924105447 28.0
    vertex -17.039583860400846 1.339708986010651 28.0
  endloop
endfacet
facet normal 0.0962036862074364 0.9953616683196623 0.0
  outer loop
    vertex -17.039583860400846 1.339708986010651 28.0
    vertex -8.537399181189562 0.5179559157549537 0.0
    vertex -17.039583860400846 1.339708986010651 0.0
  endloop
endfacet
facet normal 0.0962036862074364 0.9953616683196623 0.0
  outer loop
    vertex -8.537399181189562 0.5179559157549537 0.0
    vertex -17.039583860400846 1.339708986010651 28.0
    vertex -8.537399181189562 0.5179559157549537 28.0
  endloop
endfacet
facet normal -0.032112046620947875 0.9994842752448956 -0.0
  outer loop
    vertex 2.3718882554718227e-15 0.24366109459746926 28.0
    vertex 4.268699590594777 0.38080850517620374 0.0
    vertex 2.3718882554718227e-15 0.24366109459746926 0.0
  endloop
endfacet
facet normal -0.032112046620947875 0.9994842752448956 -0.0
  outer loop
    vertex 4.268699590594777 0.38080850517620374 0.0
    vertex 2.3718882554718227e-15 0.24366109459746926 28.0
    vertex 4.268699590594777 0.38080850517620374 28.0
  endloop
endfacet
facet normal -0.09620368620743901 0.995361668319662 -0.0
  outer loop
    vertex 12.788491520795198 0.9288324508827911 28.0
    vertex 17.03958386040084 1.339708986010651 0.0
    vertex 12.788491520795198 0.9288324508827911 0.0
  endloop
endfacet
facet normal -0.09620368620743901 0.995361668319662 -0.0
  outer loop
    vertex 17.03958386040084 1.339708986010651 0.0
    vertex 12.788491520795198 0.9288324508827911 28.0
    vertex 17.03958386040084 1.339708986010651 28.0
  endloop
endfacet
facet normal -0.15989851116380224 0.9871334591267786 0.0
  outer loop
    vertex 17.03958386040084 1.339708986010651 28.0
    vertex 25.471484786114576 2.7055307924105447 0.0
    vertex 17.03958386040084 1.339708986010651 0.0
  endloop
endfacet
facet normal -0.15989851116380224 0.9871334591267786 0.0
  outer loop
    vertex 25.471484786114576 2.7055307924105447 0.0
    vertex 17.03958386040084 1.339708986010651 28.0
    vertex 25.471484786114576 2.7055307924105447 28.0
  endloop
endfacet
facet normal -0.22293379727019852 0.9748335868417184 0.0
  outer loop
    vertex 25.471484786114576 2.7055307924105447 28.0
    vertex 33.798322608609936 4.609787683103223 0.0
    vertex 25.471484786114576 2.7055307924105447 0.0
  endloop
endfacet
facet normal -0.22293379727019852 0.9748335868417184 0.0
  outer loop
    vertex 33.798322608609936 4.609787683103223 0.0
    vertex 25.471484786114576 2.7055307924105447 28.0
    vertex 33.798322608609936 4.609787683103223 28.0
  endloop
endfacet
facet normal -0.285049540729195 0.9585127851677697 0.0
  outer loop
    vertex 33.798322608609936 4.609787683103223 28.0
    vertex 41.98575133553611 7.044625104656063 0.0
    vertex 33.798322608609936 4.609787683103223 0.0
  endloop
endfacet
facet normal -0.285049540729195 0.9585127851677697 0.0
  outer loop
    vertex 41.98575133553611 7.044625104656063 0.0
    vertex 33.798322608609936 4.609787683103223 28.0
    vertex 41.98575133553611 7.044625104656063 28.0
  endloop
endfacet
facet normal 0.285049540729195 -0.9585127851677697 0.0
  outer loop
    vertex 41.98575133553611 -4.955374895343934 28.0
    vertex 33.79832260860993 -7.390212316896775 0.0
    vertex 41.98575133553611 -4.955374895343934 0.0
  endloop
endfacet
facet normal 0.285049540729195 -0.9585127851677697 0.0
  outer loop
    vertex 33.79832260860993 -7.390212316896775 0.0
    vertex 41.98575133553611 -4.955374895343934 28.0
    vertex 33.79832260860993 -7.390212316896775 28.0
  endloop
endfacet
facet normal 0.2229337972701986 -0.9748335868417184 0.0
  outer loop
    vertex 33.79832260860993 -7.390212316896775 28.0
    vertex 25.471484786114573 -9.294469207589454 0.0
    vertex 33.79832260860993 -7.390212316896775 0.0
  endloop
endfacet
facet normal 0.2229337972701986 -0.9748335868417184 0.0
  outer loop
    vertex 25.471484786114573 -9.294469207589454 0.0
    vertex 33.79832260860993 -7.390212316896775 28.0
    vertex 25.471484786114573 -9.294469207589454 28.0
  endloop
endfacet
facet normal 0.15989851116380224 -0.9871334591267786 0.0
  outer loop
    vertex 25.471484786114573 -9.294469207589454 28.0
    vertex 17.039583860400835 -10.660291013989347 0.0
    vertex 25.471484786114573 -9.294469207589454 0.0
  endloop
endfacet
facet normal 0.15989851116380224 -0.9871334591267786 0.0
  outer loop
    vertex 17.039583860400835 -10.660291013989347 0.0
    vertex 25.471484786114573 -9.294469207589454 28.0
    vertex 17.039583860400835 -10.660291013989347 28.0
  endloop
endfacet
facet normal 0.09620368620743901 -0.9953616683196621 0.0
  outer loop
    vertex 17.039583860400835 -10.660291013989347 28.0
    vertex 8.53739918118955 -11.482044084245068 0.0
    vertex 17.039583860400835 -10.660291013989347 0.0
  endloop
endfacet
facet normal 0.09620368620743901 -0.9953616683196621 0.0
  outer loop
    vertex 8.53739918118955 -11.482044084245068 0.0
    vertex 17.039583860400835 -10.660291013989347 28.0
    vertex 8.53739918118955 -11.482044084245068 28.0
  endloop
endfacet
facet normal 0.032112046620947056 -0.9994842752448957 0.0
  outer loop
    vertex 8.53739918118955 -11.482044084245068 28.0
    vertex -3.389109261491499e-15 -11.75633890540253 0.0
    vertex 8.53739918118955 -11.482044084245068 0.0
  endloop
endfacet
facet normal 0.032112046620947056 -0.9994842752448957 0.0
  outer loop
    vertex -3.389109261491499e-15 -11.75633890540253 0.0
    vertex 8.53739918118955 -11.482044084245068 28.0
    vertex -3.389109261491499e-15 -11.75633890540253 28.0
  endloop
endfacet
facet normal -0.032112046620949644 -0.9994842752448955 -0.0
  outer loop
    vertex -3.389109261491499e-15 -11.75633890540253 28.0
    vertex -8.537399181189567 -11.482044084245045 0.0
    vertex -3.389109261491499e-15 -11.75633890540253 0.0
  endloop
endfacet
facet normal -0.032112046620949644 -0.9994842752448955 -0.0
  outer loop
    vertex -8.537399181189567 -11.482044084245045 0.0
    vertex -3.389109261491499e-15 -11.75633890540253 28.0
    vertex -8.537399181189567 -11.482044084245045 28.0
  endloop
endfacet
facet normal -0.0962036862074364 -0.9953616683196623 -0.0
  outer loop
    vertex -8.537399181189567 -11.482044084245045 28.0
    vertex -17.039583860400853 -10.660291013989347 0.0
    vertex -8.537399181189567 -11.482044084245045 0.0
  endloop
endfacet
facet normal -0.0962036862074364 -0.9953616683196623 -0.0
  outer loop
    vertex -17.039583860400853 -10.660291013989347 0.0
    vertex -8.537399181189567 -11.482044084245045 28.0
    vertex -17.039583860400853 -10.660291013989347 28.0
  endloop
endfacet
facet normal -0.15989851116380172 -0.9871334591267786 -0.0
  outer loop
    vertex -17.039583860400853 -10.660291013989347 28.0
    vertex -25.471484786114615 -9.294469207589454 0.0
    vertex -17.039583860400853 -10.660291013989347 0.0
  endloop
endfacet
facet normal -0.15989851116380172 -0.9871334591267786 -0.0
  outer loop
    vertex -25.471484786114615 -9.294469207589454 0.0
    vertex -17.039583860400853 -10.660291013989347 28.0
    vertex -25.471484786114615 -9.294469207589454 28.0
  endloop
endfacet
facet normal -0.222933797270201 -0.974833586841718 -0.0
  outer loop
    vertex -25.471484786114615 -9.294469207589454 28.0
    vertex -33.79832260860998 -7.390212316896752 0.0
    vertex -25.471484786114615 -9.294469207589454 0.0
  endloop
endfacet
facet normal -0.222933797270201 -0.974833586841718 -0.0
  outer loop
    vertex -33.79832260860998 -7.390212316896752 0.0
    vertex -25.471484786114615 -9.294469207589454 28.0
    vertex -33.79832260860998 -7.390212316896752 28.0
  endloop
endfacet
facet normal -0.285049540729193 -0.9585127851677704 -0.0
  outer loop
    vertex -33.79832260860998 -7.390212316896752 28.0
    vertex -41.98575133553614 -4.955374895343934 0.0
    vertex -33.79832260860998 -7.390212316896752 0.0
  endloop
endfacet
facet normal -0.285049540729193 -0.9585127851677704 -0.0
  outer loop
    vertex -41.98575133553614 -4.955374895343934 0.0
    vertex -33.79832260860998 -7.390212316896752 28.0
    vertex -41.98575133553614 -4.955374895343934 28.0
  endloop
endfacet
facet normal -0.3459895306123212 -0.9382383730729978 -7.2963686634029e-33
  outer loop
    vertex -41.98575133553614 -4.955374895343934 28.0
    vertex -48.21827384132428 -2.6570383550832917 0.0
    vertex -41.98575133553614 -4.955374895343934 0.0
  endloop
endfacet
facet normal -0.3459895306123212 -0.9382383730729978 -7.2963686634029e-33
  outer loop
    vertex -48.21827384132428 -2.6570383550832917 0.0
    vertex -41.98575133553614 -4.955374895343934 28.0
    vertex -50.00000000000001 -1.9999999999999991 0.0
  endloop
endfacet
facet normal -0.3459895306123212 -0.9382383730729978 -7.2963686634029e-33
  outer loop
    vertex -50.00000000000001 -1.9999999999999991 0.0
    vertex -41.98575133553614 -4.955374895343934 28.0
    vertex -50.00000000000001 -1.9999999999999991 28.0
  endloop
endfacet
facet normal -0.3459895306123212 -0.9382383730729978 -7.2963686634029e-33
  outer loop
    vertex -50.00000000000001 -1.9999999999999991 28.0
    vertex -41.98575133553614 -4.955374895343934 28.0
    vertex -48.21827384132428 -2.6570383550832917 28.0
  endloop
endfacet
facet normal 0.3459895306123212 0.9382383730729978 -2.114815611102853e-33
  outer loop
    vertex -50.00000000000001 9.999999999999998 28.0
    vertex -48.21827384132428 9.342961644916706 0.0
    vertex -50.00000000000001 9.999999999999998 0.0
  endloop
endfacet
facet normal 0.3459895306123212 0.9382383730729978 -2.114815611102853e-33
  outer loop
    vertex -48.21827384132428 9.342961644916706 0.0
    vertex -50.00000000000001 9.999999999999998 28.0
    vertex -41.985751335536136 7.044625104656063 0.0
  endloop
endfacet
facet normal 0.3459895306123212 0.9382383730729978 -2.114815611102853e-33
  outer loop
    vertex -41.985751335536136 7.044625104656063 0.0
    vertex -50.00000000000001 9.999999999999998 28.0
    vertex -41.985751335536136 7.044625104656063 28.0
  endloop
endfacet
facet normal 0.3459895306123212 0.9382383730729978 -2.114815611102853e-33
  outer loop
    vertex -41.985751335536136 7.044625104656063 28.0
    vertex -50.00000000000001 9.999999999999998 28.0
    vertex -48.21827384132428 9.342961644916706 28.0
  endloop
endfacet
facet normal 0.0 0.0 -1.0
  outer loop
    vertex -9.94663297236241 16.136947904224634 0.0
    vertex -8.723788831819325 13.77641004082191 0.0
    vertex -10.64589863788756 14.73538875948448 0.0
  endloop
endfacet
facet normal 0.0 0.0 -1.0
  outer loop
    vertex -8.723788831819325 13.77641004082191 0.0
    vertex -9.94663297236241 16.136947904224634 0.0
    vertex -7.870255041833799 18.4825857105285 0.0
  endloop
endfacet
facet normal 0.0 0.0 -1.0
  outer loop
    vertex -8.723788831819325 13.77641004082191 0.0
    vertex -7.870255041833799 18.4825857105285 0.0
    vertex -7.834437485021933 15.638565748464437 0.0
  endloop
endfacet
facet normal 0.0 0.0 -1.0
  outer loop
    vertex -7.834437485021933 15.638565748464437 0.0
    vertex -7.870255041833799 18.4825857105285 0.0
    vertex -5.257532236415615 20.210891693506085 0.0
  endloop
endfacet
facet normal 0.0 0.0 -1.0
  outer loop
    vertex -7.834437485021933 15.638565748464437 0.0
    vertex -5.257532236415615 20.210891693506085 0.0
    vertex -4.350501670049023 18.428000855674885 0.0
  endloop
endfacet
facet normal 0.0 0.0 -1.0
  outer loop
    vertex -4.350501670049023 18.428000855674885 0.0
    vertex -5.257532236415615 20.210891693506085 0.0
    vertex -2.286517297568542 21.204084656578136 0.0
  endloop
endfacet
facet normal 0.0 0.0 -1.0
  outer loop
    vertex -4.350501670049023 18.428000855674885 0.0
    vertex -2.286517297568542 21.204084656578136 0.0
    vertex 2.339372622106634e-14 19.423938704684335 0.0
  endloop
endfacet
facet normal 0.0 0.0 -1.0
  outer loop
    vertex 2.339372622106634e-14 19.423938704684335 0.0
    vertex -2.286517297568542 21.204084656578136 0.0
    vertex 0.840320016459337 21.394480140640265 0.0
  endloop
endfacet
facet normal 0.0 0.0 -1.0
  outer loop
    vertex 2.339372622106634e-14 19.423938704684335 0.0
    vertex 0.840320016459337 21.394480140640265 0.0
    vertex 4.35050167004907 18.428000855674878 0.0
  endloop
endfacet
facet normal 0.0 0.0 -1.0
  outer loop
    vertex 4.35050167004907 18.428000855674878 0.0
    vertex 0.840320016459337 21.394480140640265 0.0
    vertex 3.9098909100599974 20.769103008097062 0.0
  endloop
endfacet
facet normal 0.0 0.0 -1.0
  outer loop
    vertex 4.35050167004907 18.428000855674878 0.0
    vertex 3.9098909100599974 20.769103008097062 0.0
    vertex 6.713009199540309 19.370571677046765 0.0
  endloop
endfacet
facet normal 0.0 0.0 -1.0
  outer loop
    vertex 4.35050167004907 18.428000855674878 0.0
    vertex 6.713009199540309 19.370571677046765 0.0
    vertex 7.834437485021971 15.638565748464423 0.0
  endloop
endfacet
facet normal 0.0 0.0 -1.0
  outer loop
    vertex 7.834437485021971 15.638565748464423 0.0
    vertex 6.713009199540309 19.370571677046765 0.0
    vertex 9.058647005844177 17.29419374651815 0.0
  endloop
endfacet
facet normal 0.0 0.0 -1.0
  outer loop
    vertex 7.834437485021971 15.638565748464423 0.0
    vertex 9.058647005844177 17.29419374651815 0.0
    vertex 9.75785073658851 11.611254183178307 0.0
  endloop
endfacet
facet normal 0.0 0.0 -1.0
  outer loop
    vertex 9.75785073658851 11.611254183178307 0.0
    vertex 9.058647005844177 17.29419374651815 0.0
    vertex 10.78695298882176 14.681470941099972 0.0
  endloop
endfacet
facet normal 0.0 0.0 -1.0
  outer loop
    vertex -50.00000000000001 9.999999999999998 0.0
    vertex -48.21827384132428 -2.6570383550832917 0.0
    vertex -50.00000000000001 -1.9999999999999991 0.0
  endloop
endfacet
facet normal 0.0 0.0 -1.0
  outer loop
    vertex -48.21827384132428 -2.6570383550832917 0.0
    vertex -50.00000000000001 9.999999999999998 0.0
    vertex -48.21827384132428 9.342961644916706 0.0
  endloop
endfacet
facet normal 0.0 0.0 -1.0
  outer loop
    vertex -48.21827384132428 -2.6570383550832917 0.0
    vertex -48.21827384132428 9.342961644916706 0.0
    vertex -41.985751335536136 7.044625104656063 0.0
  endloop
endfacet
facet normal 0.0 0.0 -1.0
  outer loop
    vertex -48.21827384132428 -2.6570383550832917 0.0
    vertex -41.985751335536136 7.044625104656063 0.0
    vertex -41.98575133553614 -4.955374895343934 0.0
  endloop
endfacet
facet normal 0.0 0.0 -1.0
  outer loop
    vertex -41.98575133553614 -4.955374895343934 0.0
    vertex -41.985751335536136 7.044625104656063 0.0
    vertex -33.79832260860998 -7.390212316896752 0.0
  endloop
endfacet
facet normal 0.0 0.0 -1.0
  outer loop
    vertex -33.79832260860998 -7.390212316896752 0.0
    vertex -41.985751335536136 7.044625104656063 0.0
    vertex -33.79832260860997 4.609787683103246 0.0
  endloop
endfacet
facet normal 0.0 0.0 -1.0
  outer loop
    vertex -33.79832260860998 -7.390212316896752 0.0
    vertex -33.79832260860997 4.609787683103246 0.0
    vertex -25.471484786114615 -9.294469207589454 0.0
  endloop
endfacet
facet normal 0.0 0.0 -1.0
  outer loop
    vertex -25.471484786114615 -9.294469207589454 0.0
    vertex -33.79832260860997 4.609787683103246 0.0
    vertex -25.471484786114612 2.7055307924105447 0.0
  endloop
endfacet
facet normal 0.0 0.0 -1.0
  outer loop
    vertex -25.471484786114615 -9.294469207589454 0.0
    vertex -25.471484786114612 2.7055307924105447 0.0
    vertex -17.039583860400853 -10.660291013989347 0.0
  endloop
endfacet
facet normal 0.0 0.0 -1.0
  outer loop
    vertex -17.039583860400853 -10.660291013989347 0.0
    vertex -25.471484786114612 2.7055307924105447 0.0
    vertex -17.039583860400846 1.339708986010651 0.0
  endloop
endfacet
facet normal 0.0 0.0 -1.0
  outer loop
    vertex -17.039583860400853 -10.660291013989347 0.0
    vertex -17.039583860400846 1.339708986010651 0.0
    vertex -8.537399181189567 -11.482044084245045 0.0
  endloop
endfacet
facet normal 0.0 0.0 -1.0
  outer loop
    vertex -8.537399181189567 -11.482044084245045 0.0
    vertex -17.039583860400846 1.339708986010651 0.0
    vertex -8.537399181189562 0.5179559157549537 0.0
  endloop
endfacet
facet normal 0.0 0.0 -1.0
  outer loop
    vertex -8.537399181189567 -11.482044084245045 0.0
    vertex -8.537399181189562 0.5179559157549537 0.0
    vertex -3.389109261491499e-15 -11.75633890540253 0.0
  endloop
endfacet
facet normal 0.0 0.0 -1.0
  outer loop
    vertex -3.389109261491499e-15 -11.75633890540253 0.0
    vertex -8.537399181189562 0.5179559157549537 0.0
    vertex -7.8641737831712355 0.49632611536387305 0.0
  endloop
endfacet
facet normal 0.0 0.0 -1.0
  outer loop
    vertex -3.389109261491499e-15 -11.75633890540253 0.0
    vertex -7.8641737831712355 0.49632611536387305 0.0
    vertex -4.268699590594783 0.38080850517621645 0.0
  endloop
endfacet
facet normal 0.0 0.0 -1.0
  outer loop
    vertex -3.389109261491499e-15 -11.75633890540253 0.0
    vertex -4.268699590594783 0.38080850517621645 0.0
    vertex 2.3718882554718227e-15 0.24366109459746926 0.0
  endloop
endfacet
facet normal 0.0 0.0 -1.0
  outer loop
    vertex -3.389109261491499e-15 -11.75633890540253 0.0
    vertex 2.3718882554718227e-15 0.24366109459746926 0.0
    vertex 8.53739918118955 -11.482044084245068 0.0
  endloop
endfacet
facet normal 0.0 0.0 -1.0
  outer loop
    vertex 8.53739918118955 -11.482044084245068 0.0
    vertex 2.3718882554718227e-15 0.24366109459746926 0.0
    vertex 4.268699590594777 0.38080850517620374 0.0
  endloop
endfacet
facet normal 0.0 0.0 -1.0
  outer loop
    vertex 8.53739918118955 -11.482044084245068 0.0
    vertex 4.268699590594777 0.38080850517620374 0.0
    vertex 7.777778945305438 3.1385465388792806 0.0
  endloop
endfacet
facet normal 0.0 0.0 -1.0
  outer loop
    vertex 8.53739918118955 -11.482044084245068 0.0
    vertex 7.777778945305438 3.1385465388792806 0.0
    vertex 9.737621413444396 7.1482565633409125 0.0
  endloop
endfacet
facet normal 0.0 0.0 -1.0
  outer loop
    vertex 8.53739918118955 -11.482044084245068 0.0
    vertex 9.737621413444396 7.1482565633409125 0.0
    vertex 17.039583860400835 -10.660291013989347 0.0
  endloop
endfacet
facet normal 0.0 0.0 -1.0
  outer loop
    vertex 17.039583860400835 -10.660291013989347 0.0
    vertex 9.737621413444396 7.1482565633409125 0.0
    vertex 12.788491520795198 0.9288324508827911 0.0
  endloop
endfacet
facet normal 0.0 0.0 -1.0
  outer loop
    vertex 12.788491520795198 0.9288324508827911 0.0
    vertex 9.737621413444396 7.1482565633409125 0.0
    vertex 9.75785073658851 11.611254183178307 0.0
  endloop
endfacet
facet normal 0.0 0.0 -1.0
  outer loop
    vertex 12.788491520795198 0.9288324508827911 0.0
    vertex 9.75785073658851 11.611254183178307 0.0
    vertex 10.78695298882176 14.681470941099972 0.0
  endloop
endfacet
facet normal 0.0 0.0 -1.0
  outer loop
    vertex 12.788491520795198 0.9288324508827911 0.0
    vertex 10.78695298882176 14.681470941099972 0.0
    vertex 11.970541435955939 8.583618688225021 0.0
  endloop
endfacet
facet normal 0.0 0.0 -1.0
  outer loop
    vertex 11.970541435955939 8.583618688225021 0.0
    vertex 10.78695298882176 14.681470941099972 0.0
    vertex 11.78014595189381 11.710456002252895 0.0
  endloop
endfacet
facet normal 0.0 0.0 -1.0
  outer loop
    vertex 17.039583860400835 -10.660291013989347 0.0
    vertex 12.788491520795198 0.9288324508827911 0.0
    vertex 17.03958386040084 1.339708986010651 0.0
  endloop
endfacet
facet normal 0.0 0.0 -1.0
  outer loop
    vertex 17.039583860400835 -10.660291013989347 0.0
    vertex 17.03958386040084 1.339708986010651 0.0
    vertex 25.471484786114573 -9.294469207589454 0.0
  endloop
endfacet
facet normal 0.0 0.0 -1.0
  outer loop
    vertex 25.471484786114573 -9.294469207589454 0.0
    vertex 17.03958386040084 1.339708986010651 0.0
    vertex 25.471484786114576 2.7055307924105447 0.0
  endloop
endfacet
facet normal 0.0 0.0 -1.0
  outer loop
    vertex 25.471484786114573 -9.294469207589454 0.0
    vertex 25.471484786114576 2.7055307924105447 0.0
    vertex 33.79832260860993 -7.390212316896775 0.0
  endloop
endfacet
facet normal 0.0 0.0 -1.0
  outer loop
    vertex 33.79832260860993 -7.390212316896775 0.0
    vertex 25.471484786114576 2.7055307924105447 0.0
    vertex 33.798322608609936 4.609787683103223 0.0
  endloop
endfacet
facet normal 0.0 0.0 -1.0
  outer loop
    vertex 33.79832260860993 -7.390212316896775 0.0
    vertex 33.798322608609936 4.609787683103223 0.0
    vertex 41.98575133553611 -4.955374895343934 0.0
  endloop
endfacet
facet normal 0.0 0.0 -1.0
  outer loop
    vertex 41.98575133553611 -4.955374895343934 0.0
    vertex 33.798322608609936 4.609787683103223 0.0
    vertex 41.98575133553611 7.044625104656063 0.0
  endloop
endfacet
facet normal 0.0 0.0 -1.0
  outer loop
    vertex 41.98575133553611 -4.955374895343934 0.0
    vertex 41.98575133553611 7.044625104656063 0.0
    vertex 47.83211105323111 -2.7994416990807256 0.0
  endloop
endfacet
facet normal 0.0 0.0 -1.0
  outer loop
    vertex 47.83211105323111 -2.7994416990807256 0.0
    vertex 41.98575133553611 7.044625104656063 0.0
    vertex 47.83211105323111 9.20055830091927 0.0
  endloop
endfacet
facet normal 0.0 0.0 -1.0
  outer loop
    vertex 47.83211105323111 -2.7994416990807256 0.0
    vertex 47.83211105323111 9.20055830091927 0.0
    vertex 49.99999999999997 9.999999999999977 0.0
  endloop
endfacet
facet normal 0.0 0.0 -1.0
  outer loop
    vertex 47.83211105323111 -2.7994416990807256 0.0
    vertex 49.99999999999997 9.999999999999977 0.0
    vertex 49.99999999999995 7.999999999999977 0.0
  endloop
endfacet
facet normal 0.0 0.0 -1.0
  outer loop
    vertex 49.99999999999995 7.999999999999977 0.0
    vertex 49.999999999999964 -2.0000000000000218 0.0
    vertex 47.83211105323111 -2.7994416990807256 0.0
  endloop
endfacet
facet normal 0.0 0.0 -1.0
  outer loop
    vertex 49.999999999999964 -2.0000000000000218 0.0
    vertex 49.99999999999995 7.999999999999977 0.0
    vertex 49.99999999999998 -2.255973186038318e-14 0.0
  endloop
endfacet
facet normal 0.4464401956622046 0.8948134731311843 0.0
  outer loop
    vertex 3.9098909100599974 20.769103008097062 28.0
    vertex 6.713009199540309 19.370571677046765 0.0
    vertex 3.9098909100599974 20.769103008097062 0.0
  endloop
endfacet
facet normal 0.4464401956622046 0.8948134731311843 0.0
  outer loop
    vertex 6.713009199540309 19.370571677046765 0.0
    vertex 3.9098909100599974 20.769103008097062 28.0
    vertex 6.713009199540309 19.370571677046765 28.0
  endloop
endfacet
facet normal 0.19963334622298484 0.9798706685455045 0.0
  outer loop
    vertex 0.840320016459337 21.394480140640265 28.0
    vertex 3.9098909100599974 20.769103008097062 0.0
    vertex 0.840320016459337 21.394480140640265 0.0
  endloop
endfacet
facet normal 0.19963334622298484 0.9798706685455045 0.0
  outer loop
    vertex 3.9098909100599974 20.769103008097062 0.0
    vertex 0.840320016459337 21.394480140640265 28.0
    vertex 3.9098909100599974 20.769103008097062 28.0
  endloop
endfacet
facet normal -0.0607781858516264 0.9981512972112921 0.0
  outer loop
    vertex -2.286517297568542 21.204084656578136 28.0
    vertex 0.840320016459337 21.394480140640265 0.0
    vertex -2.286517297568542 21.204084656578136 0.0
  endloop
endfacet
facet normal -0.0607781858516264 0.9981512972112921 0.0
  outer loop
    vertex 0.840320016459337 21.394480140640265 0.0
    vertex -2.286517297568542 21.204084656578136 28.0
    vertex 0.840320016459337 21.394480140640265 28.0
  endloop
endfacet
facet normal -0.3170477850011529 0.948409564495141 0.0
  outer loop
    vertex -5.257532236415615 20.210891693506085 28.0
    vertex -2.286517297568542 21.204084656578136 0.0
    vertex -5.257532236415615 20.210891693506085 0.0
  endloop
endfacet
facet normal -0.3170477850011529 0.948409564495141 0.0
  outer loop
    vertex -2.286517297568542 21.204084656578136 0.0
    vertex -5.257532236415615 20.210891693506085 28.0
    vertex -2.286517297568542 21.204084656578136 28.0
  endloop
endfacet
facet normal -0.5517111015490872 0.834035287279557 0.0
  outer loop
    vertex -7.870255041833799 18.4825857105285 28.0
    vertex -5.257532236415615 20.210891693506085 0.0
    vertex -7.870255041833799 18.4825857105285 0.0
  endloop
endfacet
facet normal -0.5517111015490872 0.834035287279557 0.0
  outer loop
    vertex -5.257532236415615 20.210891693506085 0.0
    vertex -7.870255041833799 18.4825857105285 28.0
    vertex -5.257532236415615 20.210891693506085 28.0
  endloop
endfacet
facet normal -0.7487762182721551 0.6628228835443524 0.0
  outer loop
    vertex -7.870255041833799 18.4825857105285 28.0
    vertex -9.94663297236241 16.136947904224634 0.0
    vertex -9.94663297236241 16.136947904224634 28.0
  endloop
endfacet
facet normal -0.7487762182721551 0.6628228835443524 0.0
  outer loop
    vertex -9.94663297236241 16.136947904224634 0.0
    vertex -7.870255041833799 18.4825857105285 28.0
    vertex -7.870255041833799 18.4825857105285 0.0
  endloop
endfacet
facet normal -0.894813473131184 0.4464401956622052 0.0
  outer loop
    vertex -9.94663297236241 16.136947904224634 28.0
    vertex -10.64589863788756 14.73538875948448 0.0
    vertex -10.64589863788756 14.73538875948448 28.0
  endloop
endfacet
facet normal -0.894813473131184 0.4464401956622052 0.0
  outer loop
    vertex -10.64589863788756 14.73538875948448 0.0
    vertex -9.94663297236241 16.136947904224634 28.0
    vertex -9.94663297236241 16.136947904224634 0.0
  endloop
endfacet
facet normal -0.0 -0.0 1.0
  outer loop
    vertex -49.99999999999999 0.0 3.0
    vertex -48.21827384132428 7.342961644916701 3.0
    vertex -50.00000000000002 7.999999999999999 3.0
  endloop
endfacet
facet normal -0.0 -0.0 1.0
  outer loop
    vertex -48.21827384132428 7.342961644916701 3.0
    vertex -49.99999999999999 0.0 3.0
    vertex -48.21827384132428 -0.6570383550832871 3.0
  endloop
endfacet
facet normal -0.0 -0.0 1.0
  outer loop
    vertex -48.21827384132428 7.342961644916701 3.0
    vertex -48.21827384132428 -0.6570383550832871 3.0
    vertex -41.98575133553613 -2.955374895343935 3.0
  endloop
endfacet
facet normal -0.0 -0.0 1.0
  outer loop
    vertex -48.21827384132428 7.342961644916701 3.0
    vertex -41.98575133553613 -2.955374895343935 3.0
    vertex -41.98575133553616 5.044625104656064 3.0
  endloop
endfacet
facet normal -0.0 -0.0 1.0
  outer loop
    vertex -41.98575133553616 5.044625104656064 3.0
    vertex -41.98575133553613 -2.955374895343935 3.0
    vertex -33.79832260860999 2.6097876831032463 3.0
  endloop
endfacet
facet normal -0.0 -0.0 1.0
  outer loop
    vertex -33.79832260860999 2.6097876831032463 3.0
    vertex -41.98575133553613 -2.955374895343935 3.0
    vertex -33.798322608609965 -5.390212316896753 3.0
  endloop
endfacet
facet normal -0.0 -0.0 1.0
  outer loop
    vertex -33.79832260860999 2.6097876831032463 3.0
    vertex -33.798322608609965 -5.390212316896753 3.0
    vertex -25.471484786114626 0.705530792410545 3.0
  endloop
endfacet
facet normal -0.0 -0.0 1.0
  outer loop
    vertex -25.471484786114626 0.705530792410545 3.0
    vertex -33.798322608609965 -5.390212316896753 3.0
    vertex -25.4714847861146 -7.294469207589454 3.0
  endloop
endfacet
facet normal -0.0 -0.0 1.0
  outer loop
    vertex -25.471484786114626 0.705530792410545 3.0
    vertex -25.4714847861146 -7.294469207589454 3.0
    vertex -17.039583860400867 -0.6602910139893488 3.0
  endloop
endfacet
facet normal -0.0 -0.0 1.0
  outer loop
    vertex -17.039583860400867 -0.6602910139893488 3.0
    vertex -25.4714847861146 -7.294469207589454 3.0
    vertex -17.03958386040084 -8.660291013989347 3.0
  endloop
endfacet
facet normal -0.0 -0.0 1.0
  outer loop
    vertex -17.039583860400867 -0.6602910139893488 3.0
    vertex -17.03958386040084 -8.660291013989347 3.0
    vertex -8.537399181189581 -1.4820440842450462 3.0
  endloop
endfacet
facet normal -0.0 -0.0 1.0
  outer loop
    vertex -8.537399181189581 -1.4820440842450462 3.0
    vertex -17.03958386040084 -8.660291013989347 3.0
    vertex -8.537399181189553 -9.482044084245045 3.0
  endloop
endfacet
facet normal -0.0 -0.0 1.0
  outer loop
    vertex -8.537399181189581 -1.4820440842450462 3.0
    vertex -8.537399181189553 -9.482044084245045 3.0
    vertex -1.709686000235084e-14 -1.7563389054025307 3.0
  endloop
endfacet
facet normal -0.0 -0.0 1.0
  outer loop
    vertex -1.709686000235084e-14 -1.7563389054025307 3.0
    vertex -8.537399181189553 -9.482044084245045 3.0
    vertex 1.127986593019159e-14 -9.75633890540253 3.0
  endloop
endfacet
facet normal -0.0 -0.0 1.0
  outer loop
    vertex -1.709686000235084e-14 -1.7563389054025307 3.0
    vertex 1.127986593019159e-14 -9.75633890540253 3.0
    vertex 8.537399181189535 -1.4820440842450686 3.0
  endloop
endfacet
facet normal -0.0 -0.0 1.0
  outer loop
    vertex 8.537399181189535 -1.4820440842450686 3.0
    vertex 1.127986593019159e-14 -9.75633890540253 3.0
    vertex 8.537399181189564 -9.482044084245068 3.0
  endloop
endfacet
facet normal -0.0 -0.0 1.0
  outer loop
    vertex 8.537399181189535 -1.4820440842450686 3.0
    vertex 8.537399181189564 -9.482044084245068 3.0
    vertex 17.03958386040082 -0.6602910139893488 3.0
  endloop
endfacet
facet normal -0.0 -0.0 1.0
  outer loop
    vertex 17.03958386040082 -0.6602910139893488 3.0
    vertex 8.537399181189564 -9.482044084245068 3.0
    vertex 17.039583860400853 -8.660291013989347 3.0
  endloop
endfacet
facet normal -0.0 -0.0 1.0
  outer loop
    vertex 17.03958386040082 -0.6602910139893488 3.0
    vertex 17.039583860400853 -8.660291013989347 3.0
    vertex 25.47148478611456 0.705530792410545 3.0
  endloop
endfacet
facet normal -0.0 -0.0 1.0
  outer loop
    vertex 25.47148478611456 0.705530792410545 3.0
    vertex 17.039583860400853 -8.660291013989347 3.0
    vertex 25.471484786114594 -7.294469207589454 3.0
  endloop
endfacet
facet normal -0.0 -0.0 1.0
  outer loop
    vertex 25.47148478611456 0.705530792410545 3.0
    vertex 25.471484786114594 -7.294469207589454 3.0
    vertex 33.798322608609915 2.609787683103224 3.0
  endloop
endfacet
facet normal -0.0 -0.0 1.0
  outer loop
    vertex 33.798322608609915 2.609787683103224 3.0
    vertex 25.471484786114594 -7.294469207589454 3.0
    vertex 33.79832260860994 -5.3902123168967755 3.0
  endloop
endfacet
facet normal -0.0 -0.0 1.0
  outer loop
    vertex 33.798322608609915 2.609787683103224 3.0
    vertex 33.79832260860994 -5.3902123168967755 3.0
    vertex 41.985751335536094 5.044625104656064 3.0
  endloop
endfacet
facet normal -0.0 -0.0 1.0
  outer loop
    vertex 41.985751335536094 5.044625104656064 3.0
    vertex 33.79832260860994 -5.3902123168967755 3.0
    vertex 41.98575133553612 -2.955374895343935 3.0
  endloop
endfacet
facet normal -0.0 -0.0 1.0
  outer loop
    vertex 41.985751335536094 5.044625104656064 3.0
    vertex 41.98575133553612 -2.955374895343935 3.0
    vertex 47.83211105323111 7.200558300919278 3.0
  endloop
endfacet
facet normal -0.0 -0.0 1.0
  outer loop
    vertex 47.83211105323111 7.200558300919278 3.0
    vertex 41.98575133553612 -2.955374895343935 3.0
    vertex 47.83211105323111 -0.7994416990807298 3.0
  endloop
endfacet
facet normal -0.0 -0.0 1.0
  outer loop
    vertex 47.83211105323111 7.200558300919278 3.0
    vertex 47.83211105323111 -0.7994416990807298 3.0
    vertex 49.99999999999998 -2.255973186038318e-14 3.0
  endloop
endfacet
facet normal -0.0 -0.0 1.0
  outer loop
    vertex 47.83211105323111 7.200558300919278 3.0
    vertex 49.99999999999998 -2.255973186038318e-14 3.0
    vertex 49.99999999999995 7.999999999999977 3.0
  endloop
endfacet
facet normal 0.03211204662094962 0.9994842752448956 -6.095701590232698e-18
  outer loop
    vertex -8.537399181189562 0.5179559157549537 28.0
    vertex -7.8641737831712355 0.49632611536387305 0.0
    vertex -8.537399181189562 0.5179559157549537 0.0
  endloop
endfacet
facet normal 0.03211204662094962 0.9994842752448956 -6.095701590232698e-18
  outer loop
    vertex -7.8641737831712355 0.49632611536387305 0.0
    vertex -8.537399181189562 0.5179559157549537 28.0
    vertex -4.268699590594783 0.38080850517621645 0.0
  endloop
endfacet
facet normal 0.03211204662094962 0.9994842752448956 -6.095701590232698e-18
  outer loop
    vertex -4.268699590594783 0.38080850517621645 0.0
    vertex -8.537399181189562 0.5179559157549537 28.0
    vertex 2.3718882554718227e-15 0.24366109459746926 0.0
  endloop
endfacet
facet normal 0.03211204662094962 0.9994842752448956 -6.095701590232698e-18
  outer loop
    vertex 2.3718882554718227e-15 0.24366109459746926 0.0
    vertex -8.537399181189562 0.5179559157549537 28.0
    vertex 2.3718882554718227e-15 0.24366109459746926 28.0
  endloop
endfacet
facet normal 0.03211204662094962 0.9994842752448956 -6.095701590232698e-18
  outer loop
    vertex 2.3718882554718227e-15 0.24366109459746926 28.0
    vertex -8.537399181189562 0.5179559157549537 28.0
    vertex -4.268699590594783 0.38080850517621645 28.0
  endloop
endfacet
endsolid fishbucketjig4
